<svg width="100" height="80" viewBox="0 0 100 80" fill="none" xmlns="http://www.w3.org/2000/svg">
<g clip-path="url(#clip0_143_447)">
<path d="M18.2906 55.5051C19.3344 55.0876 21.3594 54.2801 21.3594 51.4026C21.3594 49.3376 19.7906 46.2651 13.65 46.2651H1.48438V66.2976H12.0875C17.2156 66.2976 18.575 65.6001 20.0031 64.4776C21.3219 63.4526 22.1594 61.9401 22.1594 60.3576C22.1594 58.3751 21.3594 56.4226 18.2906 55.5051ZM6.50937 49.7326H12.5094C14.8781 49.7326 16.3437 50.2326 16.3437 51.8776C16.3437 53.4726 14.7094 54.1126 12.6437 54.1126H6.50937V49.7326ZM12.9187 62.8376H6.50937V57.4801H13.1688C15.0562 57.4801 16.9344 58.1576 16.9344 59.9076C16.9281 61.9401 15.4625 62.8376 12.9187 62.8376Z" fill="black"/>
<path d="M1.4873 69.4702V71.2902H5.3623V79.7327H8.03418V71.2902H11.9186V69.4702H1.4873Z" fill="black"/>
<path d="M87.7062 54.4677L97.925 46.2627H91.1625L81.6062 54.4052V46.2627H76.375V66.2902H81.6062V59.5127L84.0469 57.5027L91.7844 66.2902H98.5156L87.7062 54.4677Z" fill="black"/>
<path d="M38.6282 46.2627H32.597L23.6782 66.2927H29.1845L30.9251 62.1677H40.1657L41.772 66.2902H47.4532L38.6282 46.2627ZM32.3188 58.7027L35.5282 50.7827H35.6001L38.7001 58.7027H32.3188Z" fill="black"/>
<path d="M61.9657 7.0125C60.397 5.53 58.6688 4.1475 56.6376 2.95C55.6313 2.345 54.5563 1.7875 53.3782 1.2875C52.1907 0.7975 50.9751 0.325 49.522 0C49.547 1.2075 49.8095 2.27 50.1188 3.31C50.4126 4.32 50.8095 5.2675 51.272 6.1775C50.1657 6.4375 48.822 6.8025 47.3095 7.2725C46.3313 7.6225 45.2595 7.9375 44.1782 8.405C43.0813 8.825 41.9688 9.335 40.8407 9.905C39.6938 10.4225 38.6251 11.1575 37.5032 11.7925C36.4813 12.57 35.3595 13.2425 34.4501 14.125C33.5095 14.97 32.5907 15.815 31.8813 16.775C31.522 17.2425 31.1063 17.675 30.8063 18.1525C30.5188 18.6375 30.2438 19.12 29.9751 19.59C29.3657 20.5 29.0876 21.48 28.7688 22.3725C28.3907 23.2575 28.2563 24.125 28.1532 24.925C28.0688 25.7225 27.8595 26.4275 27.9095 27.0775C27.9345 27.7175 27.9532 28.2725 27.972 28.7325C28.0063 29.64 28.0157 30.1575 28.0157 30.1575C28.0157 30.1575 28.1376 29.645 28.3438 28.7525C28.447 28.31 28.5751 27.7775 28.722 27.1625C28.8376 26.55 29.2345 25.9 29.5095 25.1825C29.8032 24.465 30.1438 23.7 30.7063 22.965C31.2188 22.2175 31.6845 21.41 32.4407 20.7125C32.7813 20.355 33.1313 19.985 33.4782 19.6175C33.8438 19.26 34.3126 18.9525 34.7157 18.6175C35.5095 17.925 36.4782 17.365 37.4376 16.81C38.3532 16.2275 39.4688 15.835 40.4345 15.3575C41.5345 15.005 42.5032 14.565 43.5845 14.31C44.6157 14.01 45.6313 13.7575 46.6251 13.5775C47.5907 13.3525 48.5626 13.2525 49.4095 13.1075C49.9532 13.045 50.4532 12.9925 50.9345 12.945C50.8782 13.06 50.8188 13.17 50.7688 13.2875C50.2751 14.37 49.8907 15.5075 49.622 16.705C49.5001 17.3125 49.4001 17.9275 49.322 18.555C49.2595 19.1925 49.247 19.8525 49.3032 20.5475C50.1188 20.2975 50.8595 20.015 51.5626 19.7075C52.2407 19.39 52.9063 19.06 53.5407 18.72C54.8001 18.0275 55.9345 17.275 56.9595 16.47C59.0345 14.865 60.7501 13.0725 62.1907 11.145L62.3751 10.9C63.2595 9.7025 63.1563 8.135 61.9657 7.0125Z" fill="black"/>
<path d="M23.6813 77.4123C23.6813 75.4973 23.1063 75.1823 22.0531 74.8123C23.3219 74.4698 24.0375 73.5023 24.0375 72.3648C24.0375 71.4798 23.4156 69.4673 20.0031 69.4673H13.5156V79.7248H16.1469V75.7123H18.9125C20.8969 75.7123 21.0063 76.2573 21.0063 77.6523C21.0063 78.7073 21.1094 79.2423 21.2875 79.7223H24.2531V79.4548C23.6813 79.2848 23.6813 78.9098 23.6813 77.4123ZM19.2781 73.9898H16.1438V71.2398H19.4813C21.05 71.2398 21.3563 72.0348 21.3563 72.5823C21.3531 73.5923 20.6781 73.9898 19.2781 73.9898Z" fill="black"/>
<path d="M72.9346 71.2902V69.4702H63.8096V79.7352H66.4908V75.4202H72.1346V73.6052H66.4908V71.2902H72.9346Z" fill="black"/>
<path d="M77.3594 77.9126V75.2626H83.6094V73.4476H77.3594V71.2926H84.1687V69.4751H74.7344V79.7326H84.4688V77.9126H77.3594Z" fill="black"/>
<path d="M58.4094 73.8823L55.2906 73.2673C54.7531 73.1648 53.9281 72.9923 53.9281 72.1923C53.9281 71.2648 55.15 70.9673 56.1625 70.9673C58.5062 70.9673 58.7219 72.0498 58.7937 72.5073H61.3563C61.3375 71.2498 60.2875 69.1948 56.3563 69.1948C52.1937 69.1948 51.4281 71.2073 51.4281 72.3498C51.4281 74.6098 53.425 74.9873 55.5 75.3673L56.8719 75.6273C58.225 75.8898 59.1937 76.0998 59.1937 76.9048C59.1937 77.9773 57.7781 78.2273 56.5188 78.2273C54.175 78.2273 53.8156 77.1423 53.7969 76.5698H51.2344C51.2344 77.8473 52.0313 79.9998 56.7125 79.9998C57.8313 79.9998 61.7656 79.7198 61.7656 76.6423C61.7625 74.7998 60.1562 74.2223 58.4094 73.8823Z" fill="black"/>
<path d="M96.8186 77.4123C96.8186 75.4973 96.2373 75.1823 95.1904 74.8123C96.4529 74.4698 97.1811 73.5023 97.1811 72.3648C97.1811 71.4798 96.5529 69.4673 93.1404 69.4673H86.6592V79.7248H89.2904V75.7123H92.0561C94.0342 75.7123 94.1498 76.2573 94.1498 77.6523C94.1498 78.7073 94.2529 79.2423 94.4342 79.7223H97.3904V79.4548C96.8186 79.2848 96.8186 78.9098 96.8186 77.4123ZM92.4248 73.9898H89.2873V71.2398H92.6186C94.1936 71.2398 94.4998 72.0348 94.4998 72.5823C94.4998 73.5923 93.8217 73.9898 92.4248 73.9898Z" fill="black"/>
<path d="M66.0781 46.27V60.215H66.0125L56.0719 46.27H50.5625V66.3H55.4438L55.45 52.02H55.5156L65.7344 66.3025H70.9594V46.27H66.0781Z" fill="black"/>
<path d="M32.7312 69.4702H29.6344L25.0625 79.7277H27.8875L28.7781 77.6102H33.5094L34.3344 79.7277H37.2469L32.7312 69.4702ZM29.4969 75.8402L31.1437 71.7852H31.1687L32.7687 75.8402H29.4969Z" fill="black"/>
<path d="M46.8001 69.4702L46.797 76.6102H46.7657L41.6688 69.4702H38.8501V79.7277H41.347V72.4102H41.3876L46.6188 79.7277H49.3032V69.4702H46.8001Z" fill="black"/>
<path d="M68.6157 14.15C68.5563 13.245 68.5063 12.73 68.5063 12.73C68.5063 12.73 68.4157 13.2425 68.225 14.14C68.1344 14.5825 68.0313 15.12 67.9094 15.7375C67.8157 16.3525 67.4438 17.01 67.1938 17.735C66.9344 18.46 66.625 19.23 66.0875 19.98C65.6063 20.74 65.1719 21.555 64.4407 22.2725C64.1157 22.64 63.7813 23.015 63.45 23.395C63.0907 23.7575 62.6407 24.0775 62.2375 24.4225C61.475 25.13 60.5282 25.7175 59.5875 26.2925C58.7032 26.8975 57.5969 27.3125 56.6469 27.815C55.5657 28.1925 54.6125 28.6575 53.5407 28.935C52.525 29.2625 51.5157 29.5375 50.5282 29.74C49.575 29.99 48.6125 30.1125 47.7688 30.275C47.2282 30.3525 46.725 30.4175 46.25 30.475C46.2938 30.3575 46.3532 30.2475 46.4032 30.13C46.8532 29.0325 47.1969 27.8875 47.4219 26.685C47.5188 26.075 47.5907 25.4575 47.6469 24.8275C47.6875 24.19 47.675 23.5275 47.5969 22.8375C46.7907 23.1025 46.0594 23.405 45.3688 23.73C44.6969 24.0625 44.0563 24.4075 43.4282 24.7625C42.2032 25.485 41.0969 26.2625 40.1032 27.095C38.0907 28.7475 36.4438 30.58 35.075 32.5425L34.8969 32.7875C34.0563 34.0075 34.2188 35.57 35.4532 36.665C37.0782 38.1075 38.8594 39.45 40.9282 40.5975C41.9532 41.18 43.05 41.71 44.2532 42.18C45.45 42.645 46.6813 43.09 48.1532 43.3775C48.075 42.175 47.7688 41.12 47.4344 40.0875C47.1 39.085 46.6719 38.145 46.1719 37.2475C47.2719 36.96 48.5938 36.565 50.0907 36.06C51.0532 35.69 52.1125 35.345 53.1782 34.8525C54.2532 34.41 55.3532 33.8725 56.4438 33.275C57.5688 32.73 58.6125 31.97 59.7157 31.3075C60.7063 30.51 61.8032 29.805 62.6813 28.905C63.5907 28.0375 64.4719 27.175 65.1469 26.1975C65.4907 25.72 65.8813 25.2775 66.1688 24.7925C66.4313 24.3 66.6938 23.8125 66.9438 23.335C67.5188 22.41 67.7625 21.4225 68.05 20.525C68.3875 19.635 68.5 18.7625 68.5688 17.9625C68.6344 17.165 68.8063 16.4525 68.7375 15.805C68.6844 15.1675 68.6469 14.61 68.6157 14.15Z" fill="black"/>
</g>
<defs>
<clipPath id="clip0_143_447">
<rect width="100" height="80" fill="white"/>
</clipPath>
</defs>
</svg>
