<svg width="145" height="38" viewBox="0 0 145 38" fill="none" xmlns="http://www.w3.org/2000/svg">
<path d="M16.1071 37.675C13.0771 37.675 10.3621 37.12 7.96215 36.01C5.59215 34.87 3.71715 33.28 2.33715 31.24C0.987148 29.2 0.312148 26.83 0.312148 24.13C0.312148 21.46 0.957149 19.12 2.24715 17.11C3.56715 15.1 5.36715 13.54 7.64715 12.43C9.92715 11.29 12.5221 10.72 15.4321 10.72C18.4021 10.72 20.9521 11.38 23.0821 12.7C25.2121 13.99 26.8471 15.82 27.9871 18.19C29.1571 20.56 29.7422 23.35 29.7422 26.56H6.34215V21.565H25.6921L22.7671 23.365C22.6471 21.865 22.2721 20.59 21.6421 19.54C21.0421 18.49 20.2171 17.68 19.1671 17.11C18.1171 16.54 16.8871 16.255 15.4771 16.255C13.9471 16.255 12.6121 16.57 11.4721 17.2C10.3621 17.8 9.49215 18.655 8.86215 19.765C8.26215 20.845 7.96215 22.12 7.96215 23.59C7.96215 25.36 8.35215 26.875 9.13215 28.135C9.91215 29.395 11.0521 30.355 12.5521 31.015C14.0521 31.675 15.8671 32.005 17.9971 32.005C19.9171 32.005 21.8521 31.735 23.8021 31.195C25.7521 30.625 27.5071 29.83 29.0672 28.81V33.85C27.3872 35.05 25.4222 35.995 23.1721 36.685C20.9521 37.345 18.5971 37.675 16.1071 37.675Z" fill="#B7EA43"/>
<path d="M55.9293 20.35L56.6493 18.82C59.2593 18.88 61.4193 19.3 63.1293 20.08C64.8393 20.83 66.0993 21.865 66.9093 23.185C67.7193 24.475 68.1243 25.96 68.1243 27.64C68.1243 29.44 67.6893 31.045 66.8193 32.455C65.9793 33.865 64.7343 34.975 63.0843 35.785C61.4343 36.595 59.3643 37 56.8743 37H33.2043L35.8143 19.675L33.2043 3.25H56.0193C59.1393 3.25 61.5543 3.985 63.2643 5.455C65.0043 6.895 65.8743 8.89 65.8743 11.44C65.8743 12.82 65.5443 14.155 64.8843 15.445C64.2543 16.735 63.2043 17.83 61.7343 18.73C60.2943 19.6 58.3593 20.14 55.9293 20.35ZM40.7643 35.065L37.8393 31.375H55.2993C56.9193 31.375 58.1643 31 59.0343 30.25C59.9343 29.47 60.3843 28.39 60.3843 27.01C60.3843 25.6 59.8743 24.49 58.8543 23.68C57.8343 22.84 56.3343 22.42 54.3543 22.42H40.1343V16.93H53.4543C54.8043 16.93 55.9143 16.555 56.7843 15.805C57.6843 15.025 58.1343 13.945 58.1343 12.565C58.1343 11.515 57.7593 10.645 57.0093 9.955C56.2593 9.235 55.1793 8.875 53.7693 8.875H37.8393L40.7643 5.185L43.1493 19.675L40.7643 35.065ZM72.502 11.125L76.237 11.845L80.017 11.125V37H72.502V11.125ZM76.237 8.47C74.887 8.47 73.777 8.125 72.907 7.435C72.067 6.715 71.647 5.77 71.647 4.6C71.647 3.4 72.067 2.455 72.907 1.765C73.777 1.045 74.887 0.684998 76.237 0.684998C77.617 0.684998 78.727 1.045 79.567 1.765C80.407 2.455 80.827 3.4 80.827 4.6C80.827 5.77 80.407 6.715 79.567 7.435C78.727 8.125 77.617 8.47 76.237 8.47ZM93.2006 30.79L91.0856 30.025L106.296 11.395H114.486L92.5256 37H85.6856V2.35H93.2006V30.79ZM99.0056 24.445L104.541 20.17L115.206 37H106.611L99.0056 24.445ZM130.804 37.675C127.774 37.675 125.059 37.12 122.659 36.01C120.289 34.87 118.414 33.28 117.034 31.24C115.684 29.2 115.009 26.83 115.009 24.13C115.009 21.46 115.654 19.12 116.944 17.11C118.264 15.1 120.064 13.54 122.344 12.43C124.624 11.29 127.219 10.72 130.129 10.72C133.099 10.72 135.649 11.38 137.779 12.7C139.909 13.99 141.544 15.82 142.684 18.19C143.854 20.56 144.439 23.35 144.439 26.56H121.039V21.565H140.389L137.464 23.365C137.344 21.865 136.969 20.59 136.339 19.54C135.739 18.49 134.914 17.68 133.864 17.11C132.814 16.54 131.584 16.255 130.174 16.255C128.644 16.255 127.309 16.57 126.169 17.2C125.059 17.8 124.189 18.655 123.559 19.765C122.959 20.845 122.659 22.12 122.659 23.59C122.659 25.36 123.049 26.875 123.829 28.135C124.609 29.395 125.749 30.355 127.249 31.015C128.749 31.675 130.564 32.005 132.694 32.005C134.614 32.005 136.549 31.735 138.499 31.195C140.449 30.625 142.204 29.83 143.764 28.81V33.85C142.084 35.05 140.119 35.995 137.869 36.685C135.649 37.345 133.294 37.675 130.804 37.675Z" fill="white"/>
</svg>
